<svg width="146" height="49" viewBox="0 0 146 49" fill="none" xmlns="http://www.w3.org/2000/svg">
<g clip-path="url(#clip0_1_141)">
<path d="M134.373 0.00015925H11.6331C11.1857 0.00015925 10.7437 0.00015925 10.2974 0.00260925C9.9239 0.00505925 9.55335 0.0121765 9.17624 0.0181668C8.35697 0.0278465 7.53963 0.100213 6.73132 0.234637C5.92414 0.371987 5.14225 0.630931 4.41209 1.00271C3.68282 1.37764 3.01646 1.86481 2.4372 2.44657C1.85489 3.02669 1.3695 3.69723 0.999674 4.43241C0.628831 5.16612 0.371686 5.95236 0.237123 6.76397C0.10128 7.57456 0.0281819 8.3945 0.0184842 9.21642C0.00716188 9.59201 0.0059662 9.96884 0 10.3445V38.6594C0.0059662 39.0398 0.00716188 39.4083 0.0184842 39.7888C0.0281849 40.6107 0.101283 41.4305 0.237123 42.2411C0.371315 43.0532 0.628474 43.8399 0.999674 44.5739C1.36933 45.3067 1.85479 45.9745 2.4372 46.5514C3.01427 47.1357 3.68105 47.6232 4.41209 47.9953C5.14224 48.3681 5.92405 48.6286 6.73132 48.768C7.53976 48.9014 8.35702 48.9738 9.17624 48.9846C9.55335 48.9929 9.9239 48.9977 10.2974 48.9977C10.7436 49.0002 11.1857 49.0002 11.6331 49.0002H134.373C134.812 49.0002 135.258 49.0002 135.696 48.9977C136.068 48.9977 136.449 48.9929 136.821 48.9846C137.639 48.9743 138.454 48.9019 139.261 48.768C140.071 48.6276 140.855 48.3672 141.589 47.9953C142.32 47.623 142.986 47.1355 143.562 46.5514C144.143 45.9722 144.63 45.3049 145.004 44.5739C145.372 43.8393 145.627 43.0527 145.759 42.2411C145.895 41.4304 145.971 40.6107 145.986 39.7888C145.99 39.4083 145.99 39.0398 145.99 38.6594C146 38.2144 146 37.7718 146 37.3195V11.6819C146 11.2333 146 10.7883 145.99 10.3445C145.99 9.96884 145.99 9.59201 145.986 9.21637C145.971 8.39438 145.895 7.57462 145.759 6.76392C145.627 5.95278 145.372 5.1666 145.004 4.43236C144.251 2.95877 143.057 1.75929 141.589 1.0026C140.855 0.631729 140.071 0.372854 139.261 0.234526C138.454 0.0995102 137.639 0.0271188 136.821 0.0179952C136.449 0.0120173 136.068 0.00483875 135.696 0.00245C135.258 0 134.812 0.00015925 134.373 0.00015925Z" fill="#A6A6A6"/>
<path d="M10.3034 47.9282C9.93169 47.9282 9.56894 47.9234 9.20012 47.915C8.43608 47.905 7.67383 47.8383 6.91962 47.7152C6.21635 47.5936 5.53507 47.3674 4.89826 47.0441C4.26728 46.7234 3.69178 46.3029 3.1938 45.7987C2.68862 45.3005 2.26802 44.7226 1.9487 44.088C1.62585 43.4493 1.40242 42.7647 1.28619 42.0579C1.16067 41.2986 1.09276 40.5308 1.08305 39.7611C1.07531 39.5027 1.06519 38.6425 1.06519 38.6425V10.3443C1.06519 10.3443 1.07597 9.49736 1.08311 9.24853C1.09241 8.48006 1.15993 7.71342 1.28507 6.95524C1.40151 6.24661 1.62511 5.55999 1.94813 4.91917C2.26629 4.28501 2.68455 3.7067 3.18669 3.20668C3.68827 2.70191 4.26561 2.27926 4.89766 1.95416C5.53301 1.63184 6.213 1.40722 6.91485 1.28783C7.67154 1.16357 8.43644 1.09639 9.20312 1.08686L10.304 1.0719H135.69L136.804 1.08746C137.564 1.09652 138.322 1.1631 139.072 1.28663C139.781 1.40752 140.468 1.6337 141.11 1.95775C142.376 2.61293 143.407 3.6495 144.057 4.92216C144.375 5.55856 144.595 6.23957 144.71 6.94209C144.836 7.70649 144.907 8.47915 144.922 9.25392C144.925 9.60084 144.925 9.97348 144.925 10.3443C144.935 10.8037 144.935 11.241 144.935 11.6818V37.3194C144.935 37.7644 144.935 38.1987 144.925 38.6365C144.925 39.0349 144.925 39.3998 144.921 39.7754C144.906 40.5363 144.837 41.2952 144.712 42.0459C144.598 42.7577 144.376 43.4477 144.053 44.0917C143.732 44.7194 143.313 45.2923 142.814 45.7892C142.316 46.2961 141.739 46.719 141.107 47.0417C140.466 47.3676 139.78 47.5946 139.072 47.7152C138.317 47.8389 137.555 47.9057 136.791 47.915C136.434 47.9234 136.059 47.9282 135.696 47.9282L134.374 47.9306L10.3034 47.9282Z" fill="black"/>
<path d="M30.22 24.8683C30.2331 23.8459 30.5036 22.8434 31.0063 21.9541C31.509 21.0648 32.2276 20.3176 33.0952 19.7821C32.544 18.9917 31.8169 18.3413 30.9716 17.8825C30.1263 17.4237 29.1861 17.1691 28.2256 17.1389C26.1768 16.923 24.1906 18.3698 23.1465 18.3698C22.0823 18.3698 20.4748 17.1603 18.7439 17.1961C17.6242 17.2324 16.533 17.5593 15.5767 18.1449C14.6203 18.7306 13.8313 19.5549 13.2865 20.5377C10.9269 24.6396 12.687 30.6678 14.9473 33.9834C16.0782 35.607 17.3999 37.4206 19.1293 37.3562C20.8216 37.2858 21.4537 36.2727 23.4965 36.2727C25.5203 36.2727 26.1133 37.3562 27.8778 37.3153C29.6937 37.2858 30.8379 35.6846 31.9291 34.0457C32.7416 32.8888 33.3669 31.6102 33.7817 30.2573C32.7267 29.8093 31.8263 29.0594 31.193 28.1011C30.5596 27.1428 30.2212 26.0185 30.22 24.8683Z" fill="white"/>
<path d="M26.8871 14.9583C27.8772 13.7649 28.365 12.231 28.2469 10.6823C26.7342 10.8418 25.3369 11.5677 24.3334 12.7153C23.8427 13.276 23.467 13.9282 23.2275 14.6348C22.9881 15.3413 22.8897 16.0883 22.938 16.833C23.6946 16.8409 24.4431 16.6762 25.1272 16.3515C25.8112 16.0267 26.413 15.5504 26.8871 14.9583Z" fill="white"/>
<path d="M51.6121 33.2461H45.8369L44.45 37.3577H42.0039L47.474 22.1457H50.0155L55.4856 37.3577H52.9977L51.6121 33.2461ZM46.435 31.3488H51.0128L48.7561 24.6759H48.693L46.435 31.3488Z" fill="white"/>
<path d="M67.2991 31.8129C67.2991 35.2594 65.4618 37.4737 62.6892 37.4737C61.9869 37.5106 61.2884 37.3482 60.6737 37.005C60.059 36.6618 59.5531 36.1518 59.2137 35.5333H59.1612V41.0267H56.8938V26.2669H59.0886V28.1116H59.1303C59.4852 27.4961 59.9998 26.9887 60.6191 26.6434C61.2385 26.2981 61.9395 26.1279 62.6475 26.1508C65.451 26.1509 67.2991 28.376 67.2991 31.8129ZM64.9685 31.8129C64.9685 29.5675 63.8128 28.0912 62.0494 28.0912C60.317 28.0912 59.1517 29.5986 59.1517 31.8129C59.1517 34.0476 60.317 35.5441 62.0494 35.5441C63.8128 35.5441 64.9685 34.0787 64.9685 31.8129Z" fill="white"/>
<path d="M79.457 31.8129C79.457 35.2595 77.6198 37.4738 74.8472 37.4738C74.1448 37.5107 73.4463 37.3482 72.8317 37.0051C72.217 36.6619 71.711 36.1519 71.3716 35.5334H71.3192V41.0267H69.0518V26.2669H71.2465V28.1116H71.2882C71.6432 27.4961 72.1577 26.9887 72.7771 26.6435C73.3964 26.2982 74.0974 26.128 74.8054 26.1509C77.609 26.1509 79.457 28.376 79.457 31.8129ZM77.1265 31.8129C77.1265 29.5675 75.9707 28.0913 74.2073 28.0913C72.4749 28.0913 71.3097 29.5986 71.3097 31.8129C71.3097 34.0476 72.4749 35.5442 74.2073 35.5442C75.9708 35.5442 77.1265 34.0787 77.1265 31.8129Z" fill="white"/>
<path d="M87.4924 33.1193C87.6604 34.6278 89.12 35.6183 91.1146 35.6183C93.0257 35.6183 94.4007 34.6277 94.4007 33.2676C94.4007 32.0868 93.5714 31.3798 91.6078 30.8953L89.6443 30.4204C86.8622 29.7457 85.5706 28.4393 85.5706 26.3195C85.5706 23.6948 87.8487 21.892 91.0836 21.892C94.2851 21.892 96.4798 23.6948 96.5537 26.3195H94.2648C94.1278 24.8014 92.8779 23.8851 91.0514 23.8851C89.2248 23.8851 87.975 24.8122 87.975 26.1616C87.975 27.2371 88.7733 27.8699 90.7261 28.3543L92.3954 28.7659C95.504 29.504 96.7955 30.7577 96.7955 32.9828C96.7955 35.8288 94.5377 37.6112 90.9465 37.6112C87.5865 37.6112 85.3179 35.8706 85.1714 33.1192L87.4924 33.1193Z" fill="white"/>
<path d="M101.689 23.6423V26.2669H103.79V28.0697H101.689V34.184C101.689 35.1338 102.11 35.5765 103.033 35.5765C103.282 35.5721 103.531 35.5545 103.779 35.5238V37.3158C103.364 37.3937 102.942 37.429 102.519 37.4211C100.283 37.4211 99.4108 36.5777 99.4108 34.4268V28.0697H97.8047V26.2669H99.4108V23.6423H101.689Z" fill="white"/>
<path d="M105.006 31.8129C105.006 28.3234 107.053 26.1306 110.245 26.1306C113.448 26.1306 115.485 28.3233 115.485 31.8129C115.485 35.3121 113.459 37.4953 110.245 37.4953C107.033 37.4953 105.006 35.3121 105.006 31.8129ZM113.175 31.8129C113.175 29.4192 112.082 28.0063 110.245 28.0063C108.408 28.0063 107.316 29.4299 107.316 31.8129C107.316 34.2163 108.408 35.6183 110.245 35.6183C112.082 35.6183 113.175 34.2163 113.175 31.8129Z" fill="white"/>
<path d="M117.355 26.2669H119.517V28.1546H119.57C119.716 27.5651 120.06 27.044 120.544 26.6791C121.028 26.3142 121.622 26.1277 122.227 26.1509C122.488 26.1499 122.749 26.1784 123.004 26.2358V28.3652C122.674 28.264 122.33 28.2175 121.985 28.2276C121.655 28.2142 121.327 28.2725 121.022 28.3986C120.717 28.5246 120.443 28.7154 120.219 28.9578C119.994 29.2002 119.825 29.4885 119.722 29.8029C119.619 30.1173 119.585 30.4504 119.622 30.7793V37.3577H117.355L117.355 26.2669Z" fill="white"/>
<path d="M133.458 34.1002C133.153 36.1136 131.2 37.4953 128.701 37.4953C125.488 37.4953 123.493 35.3336 123.493 31.8656C123.493 28.3868 125.498 26.1306 128.606 26.1306C131.662 26.1306 133.584 28.2384 133.584 31.6012V32.3812H125.782V32.5187C125.746 32.9269 125.797 33.3381 125.931 33.725C126.066 34.1119 126.281 34.4657 126.562 34.7628C126.843 35.0599 127.184 35.2936 127.561 35.4483C127.939 35.603 128.346 35.6753 128.754 35.6602C129.289 35.7106 129.827 35.586 130.287 35.3049C130.746 35.0239 131.103 34.6013 131.305 34.1002L133.458 34.1002ZM125.793 30.7901H131.315C131.336 30.4231 131.28 30.0558 131.152 29.7113C131.025 29.3669 130.828 29.0526 130.573 28.7883C130.319 28.524 130.013 28.3153 129.674 28.1754C129.336 28.0355 128.972 27.9673 128.606 27.9752C128.237 27.973 127.871 28.0442 127.529 28.1848C127.187 28.3254 126.877 28.5325 126.615 28.7942C126.354 29.0559 126.146 29.367 126.005 29.7096C125.864 30.0521 125.792 30.4194 125.793 30.7901Z" fill="white"/>
<path d="M46.1511 10.6955C46.6265 10.6612 47.1035 10.7333 47.5477 10.9066C47.992 11.0799 48.3924 11.3499 48.7201 11.6974C49.0478 12.0448 49.2946 12.461 49.4427 12.9158C49.5908 13.3706 49.6366 13.8527 49.5766 14.3274C49.5766 16.6626 48.3196 18.0049 46.1511 18.0049H43.5215V10.6955H46.1511ZM44.6522 16.9712H46.0248C46.3645 16.9915 46.7044 16.9356 47.0198 16.8075C47.3353 16.6793 47.6183 16.4822 47.8483 16.2303C48.0782 15.9785 48.2494 15.6784 48.3493 15.3518C48.4491 15.0252 48.4752 14.6803 48.4256 14.3423C48.4716 14.0056 48.4429 13.6629 48.3415 13.3387C48.2401 13.0145 48.0685 12.7168 47.839 12.467C47.6096 12.2172 47.3279 12.0214 47.0143 11.8937C46.7006 11.766 46.3627 11.7096 46.0248 11.7284H44.6522V16.9712Z" fill="white"/>
<path d="M50.8538 15.2443C50.8193 14.8818 50.8606 14.5161 50.9751 14.1705C51.0896 13.825 51.2747 13.5073 51.5187 13.2378C51.7626 12.9684 52.06 12.753 52.3916 12.6057C52.7233 12.4584 53.082 12.3823 53.4447 12.3823C53.8074 12.3823 54.1661 12.4584 54.4978 12.6057C54.8294 12.753 55.1268 12.9684 55.3707 13.2378C55.6147 13.5073 55.7998 13.825 55.9143 14.1705C56.0288 14.5161 56.0701 14.8818 56.0356 15.2443C56.0708 15.6072 56.03 15.9735 55.9158 16.3195C55.8016 16.6656 55.6165 16.9839 55.3725 17.2539C55.1285 17.5239 54.831 17.7397 54.4989 17.8873C54.1669 18.035 53.8078 18.1113 53.4447 18.1113C53.0816 18.1113 52.7225 18.035 52.3904 17.8873C52.0584 17.7397 51.7609 17.5239 51.5169 17.2539C51.2728 16.9839 51.0878 16.6656 50.9736 16.3195C50.8594 15.9735 50.8186 15.6072 50.8538 15.2443ZM54.9203 15.2443C54.9203 14.0486 54.3854 13.3494 53.4465 13.3494C52.504 13.3494 51.9738 14.0486 51.9738 15.2443C51.9738 16.4496 52.5041 17.1434 53.4465 17.1434C54.3854 17.1434 54.9203 16.4448 54.9203 15.2443Z" fill="white"/>
<path d="M62.9235 18.0047H61.7988L60.6633 13.9421H60.5775L59.4468 18.0047H58.3327L56.8184 12.4886H57.9181L58.9023 16.6977H58.9833L60.1128 12.4886H61.153L62.2825 16.6977H62.3683L63.3477 12.4886H64.432L62.9235 18.0047Z" fill="white"/>
<path d="M65.7058 12.4887H66.7496V13.365H66.8306C66.968 13.0502 67.1998 12.7864 67.4937 12.6102C67.7876 12.4341 68.1289 12.3544 68.4701 12.3822C68.7374 12.362 69.0058 12.4025 69.2554 12.5006C69.5051 12.5987 69.7295 12.752 69.9121 12.949C70.0947 13.146 70.2309 13.3818 70.3104 13.6388C70.39 13.8959 70.4109 14.1676 70.3717 14.4338V18.0047H69.2874V14.7072C69.2874 13.8208 68.9038 13.3799 68.1019 13.3799C67.9204 13.3714 67.7392 13.4024 67.5708 13.4708C67.4023 13.5392 67.2506 13.6434 67.126 13.7761C67.0014 13.9089 66.9069 14.0672 66.8489 14.2401C66.7909 14.4129 66.7708 14.5964 66.7901 14.7778V18.0048H65.7058L65.7058 12.4887Z" fill="white"/>
<path d="M72.0994 10.3353H73.1836V18.0047H72.0994V10.3353Z" fill="white"/>
<path d="M74.6907 15.2443C74.6562 14.8818 74.6975 14.516 74.812 14.1705C74.9265 13.8249 75.1117 13.5072 75.3557 13.2377C75.5997 12.9682 75.897 12.7529 76.2288 12.6056C76.5605 12.4583 76.9192 12.3821 77.2819 12.3821C77.6446 12.3821 78.0033 12.4583 78.335 12.6056C78.6667 12.7529 78.9641 12.9682 79.2081 13.2377C79.452 13.5072 79.6372 13.8249 79.7517 14.1705C79.8662 14.516 79.9076 14.8818 79.8731 15.2443C79.9082 15.6072 79.8674 15.9735 79.7531 16.3195C79.6389 16.6656 79.4538 16.9839 79.2098 17.2539C78.9658 17.5239 78.6682 17.7397 78.3362 17.8873C78.0041 18.035 77.645 18.1112 77.2819 18.1112C76.9187 18.1112 76.5596 18.035 76.2276 17.8873C75.8956 17.7397 75.598 17.5239 75.3539 17.2539C75.1099 16.9839 74.9248 16.6656 74.8106 16.3195C74.6964 15.9735 74.6555 15.6072 74.6907 15.2443ZM78.7572 15.2443C78.7572 14.0486 78.2222 13.3494 77.2834 13.3494C76.3409 13.3494 75.8107 14.0486 75.8107 15.2443C75.8107 16.4496 76.3409 17.1434 77.2834 17.1434C78.2223 17.1434 78.7572 16.4448 78.7572 15.2443Z" fill="white"/>
<path d="M81.0146 16.4448C81.0146 15.4519 81.751 14.8795 83.058 14.7981L84.5462 14.712V14.2358C84.5462 13.6533 84.1626 13.3243 83.4215 13.3243C82.8162 13.3243 82.3968 13.5474 82.2764 13.9374H81.2267C81.3375 12.9899 82.2252 12.3822 83.4715 12.3822C84.8489 12.3822 85.6257 13.0707 85.6257 14.2358V18.0048H84.582V17.2296H84.4962C84.322 17.5076 84.0775 17.7343 83.7876 17.8865C83.4977 18.0386 83.1728 18.1108 82.846 18.0956C82.6153 18.1197 82.3822 18.095 82.1617 18.0231C81.9411 17.9512 81.738 17.8337 81.5655 17.6782C81.393 17.5226 81.2548 17.3325 81.1599 17.1201C81.065 16.9076 81.0156 16.6776 81.0146 16.4448ZM84.5462 15.9734V15.5123L83.2046 15.5984C82.448 15.6493 82.1048 15.9077 82.1048 16.3939C82.1048 16.8904 82.5338 17.1793 83.1236 17.1793C83.2964 17.1969 83.471 17.1793 83.6369 17.1278C83.8029 17.0762 83.9568 16.9917 84.0895 16.8792C84.2222 16.7667 84.3311 16.6285 84.4095 16.4729C84.488 16.3173 84.5345 16.1475 84.5462 15.9734Z" fill="white"/>
<path d="M87.0505 15.2443C87.0505 13.5013 87.943 12.3971 89.331 12.3971C89.6744 12.3813 90.0152 12.4638 90.3135 12.6352C90.6118 12.8066 90.8554 13.0597 91.0158 13.3649H91.0968V10.3353H92.1811V18.0047H91.1421V17.1332H91.0563C90.8836 17.4364 90.6315 17.6864 90.3274 17.856C90.0232 18.0256 89.6787 18.1085 89.3311 18.0956C87.9334 18.0957 87.0505 16.9915 87.0505 15.2443ZM88.1706 15.2443C88.1706 16.4143 88.7199 17.1183 89.6385 17.1183C90.5523 17.1183 91.1171 16.4041 91.1171 15.2491C91.1171 14.0995 90.5464 13.3751 89.6385 13.3751C88.7258 13.3751 88.1706 14.0839 88.1706 15.2443Z" fill="white"/>
<path d="M96.667 15.2443C96.6325 14.8818 96.6738 14.5161 96.7883 14.1705C96.9028 13.825 97.0879 13.5073 97.3319 13.2378C97.5758 12.9684 97.8732 12.753 98.2049 12.6057C98.5365 12.4584 98.8952 12.3823 99.2579 12.3823C99.6206 12.3823 99.9793 12.4584 100.311 12.6057C100.643 12.753 100.94 12.9684 101.184 13.2378C101.428 13.5073 101.613 13.825 101.728 14.1705C101.842 14.5161 101.883 14.8818 101.849 15.2443C101.884 15.6072 101.843 15.9735 101.729 16.3195C101.615 16.6656 101.43 16.9839 101.186 17.2539C100.942 17.5239 100.644 17.7397 100.312 17.8873C99.9802 18.035 99.6211 18.1113 99.2579 18.1113C98.8948 18.1113 98.5357 18.035 98.2037 17.8873C97.8717 17.7397 97.5741 17.5239 97.3301 17.2539C97.0861 16.9839 96.901 16.6656 96.7868 16.3195C96.6727 15.9735 96.6318 15.6072 96.667 15.2443ZM100.734 15.2443C100.734 14.0486 100.199 13.3494 99.2597 13.3494C98.3173 13.3494 97.7871 14.0486 97.7871 15.2443C97.7871 16.4496 98.3173 17.1434 99.2597 17.1434C100.199 17.1434 100.734 16.4448 100.734 15.2443Z" fill="white"/>
<path d="M103.304 12.4887H104.347V13.365H104.428C104.566 13.0502 104.798 12.7864 105.092 12.6102C105.386 12.4341 105.727 12.3544 106.068 12.3822C106.335 12.362 106.604 12.4025 106.853 12.5006C107.103 12.5987 107.327 12.752 107.51 12.949C107.693 13.146 107.829 13.3818 107.908 13.6388C107.988 13.8959 108.009 14.1676 107.97 14.4338V18.0047H106.885V14.7072C106.885 13.8208 106.502 13.3799 105.7 13.3799C105.518 13.3714 105.337 13.4024 105.169 13.4708C105 13.5392 104.849 13.6434 104.724 13.7761C104.599 13.9089 104.505 14.0672 104.447 14.2401C104.389 14.4129 104.369 14.5964 104.388 14.7778V18.0048H103.304V12.4887Z" fill="white"/>
<path d="M114.096 11.1153V12.5138H115.287V13.4307H114.096V16.2671C114.096 16.8449 114.333 17.0979 114.873 17.0979C115.011 17.0975 115.149 17.0891 115.287 17.0728V17.9796C115.092 18.0146 114.895 18.0332 114.697 18.0352C113.491 18.0352 113.011 17.6093 113.011 16.5458V13.4307H112.139V12.5137H113.011V11.1153H114.096Z" fill="white"/>
<path d="M116.768 10.3353H117.842V13.3751H117.928C118.072 13.0574 118.31 12.7921 118.61 12.6153C118.91 12.4385 119.257 12.3587 119.603 12.387C119.869 12.3724 120.135 12.417 120.382 12.5175C120.629 12.618 120.85 12.772 121.031 12.9684C121.212 13.1648 121.347 13.3988 121.427 13.6538C121.508 13.9088 121.531 14.1784 121.495 14.4434V18.0047H120.41V14.7119C120.41 13.8309 120.001 13.3847 119.235 13.3847C119.049 13.3693 118.861 13.395 118.686 13.46C118.511 13.525 118.351 13.6277 118.22 13.7609C118.088 13.8941 117.987 14.0546 117.923 14.2312C117.86 14.4078 117.835 14.5961 117.852 14.7831V18.0047H116.768L116.768 10.3353Z" fill="white"/>
<path d="M127.817 16.5153C127.67 17.0195 127.351 17.4556 126.916 17.7473C126.481 18.039 125.957 18.1678 125.437 18.1112C125.075 18.1208 124.715 18.0512 124.383 17.9072C124.05 17.7632 123.753 17.5483 123.511 17.2775C123.27 17.0066 123.09 16.6861 122.984 16.3385C122.879 15.9908 122.849 15.6242 122.899 15.264C122.851 14.9028 122.88 14.5354 122.986 14.1867C123.091 13.8379 123.27 13.516 123.511 13.2428C123.751 12.9695 124.047 12.7513 124.378 12.6028C124.71 12.4543 125.069 12.3791 125.432 12.3822C126.961 12.3822 127.883 13.4308 127.883 15.1629V15.5428H124.003V15.6038C123.986 15.8062 124.012 16.01 124.078 16.202C124.144 16.394 124.249 16.57 124.387 16.7188C124.525 16.8676 124.692 16.9859 124.878 17.066C125.064 17.1461 125.264 17.1863 125.467 17.184C125.726 17.2153 125.989 17.1684 126.221 17.0493C126.454 16.9303 126.646 16.7444 126.774 16.5153L127.817 16.5153ZM124.003 14.7377H126.778C126.792 14.5525 126.767 14.3666 126.705 14.1917C126.643 14.0169 126.545 13.8571 126.417 13.7225C126.29 13.5879 126.136 13.4816 125.965 13.4103C125.795 13.3391 125.611 13.3044 125.426 13.3087C125.238 13.3063 125.052 13.3417 124.879 13.4127C124.705 13.4837 124.547 13.5888 124.415 13.722C124.282 13.8552 124.177 14.0137 124.107 14.1881C124.036 14.3625 124.001 14.5494 124.003 14.7377Z" fill="white"/>
</g>
<defs>
<clipPath id="clip0_1_141">
<rect width="146" height="49" fill="white"/>
</clipPath>
</defs>
</svg>
